# Blender v2.90.1 OBJ File: ''
# www.blender.org
mtllib BasicSupport.mtl
o Cylinder
v 0.000000 -0.060385 -0.403635
v -0.000000 0.060385 -0.098063
v 0.078745 -0.060385 -0.395879
v 0.019131 0.060385 -0.096179
v 0.154464 -0.060385 -0.372910
v 0.037527 0.060385 -0.090599
v 0.224248 -0.060385 -0.335610
v 0.054481 0.060385 -0.081537
v 0.285413 -0.060385 -0.285413
v 0.069341 0.060385 -0.069341
v 0.335610 -0.060385 -0.224248
v 0.081537 0.060385 -0.054481
v 0.372910 -0.060385 -0.154464
v 0.090599 0.060385 -0.037527
v 0.395879 -0.060385 -0.078745
v 0.096179 0.060385 -0.019131
v 0.403635 -0.060385 -0.000000
v 0.098063 0.060385 0.000000
v 0.395879 -0.060385 0.078745
v 0.096179 0.060385 0.019131
v 0.372910 -0.060385 0.154464
v 0.090599 0.060385 0.037527
v 0.335610 -0.060385 0.224248
v 0.081537 0.060385 0.054481
v 0.285413 -0.060385 0.285413
v 0.069341 0.060385 0.069341
v 0.224248 -0.060385 0.335610
v 0.054481 0.060385 0.081537
v 0.154464 -0.060385 0.372910
v 0.037527 0.060385 0.090599
v 0.078745 -0.060385 0.395879
v 0.019131 0.060385 0.096179
v -0.000000 -0.060385 0.403635
v -0.000000 0.060385 0.098063
v -0.078745 -0.060385 0.395879
v -0.019131 0.060385 0.096179
v -0.154465 -0.060385 0.372910
v -0.037527 0.060385 0.090599
v -0.224248 -0.060385 0.335610
v -0.054481 0.060385 0.081537
v -0.285413 -0.060385 0.285413
v -0.069341 0.060385 0.069341
v -0.335611 -0.060385 0.224247
v -0.081537 0.060385 0.054481
v -0.372910 -0.060385 0.154464
v -0.090599 0.060385 0.037527
v -0.395879 -0.060385 0.078745
v -0.096179 0.060385 0.019131
v -0.403635 -0.060385 -0.000000
v -0.098063 0.060385 -0.000000
v -0.395879 -0.060385 -0.078746
v -0.096179 0.060385 -0.019131
v -0.372910 -0.060385 -0.154465
v -0.090599 0.060385 -0.037527
v -0.335610 -0.060385 -0.224248
v -0.081537 0.060385 -0.054481
v -0.285413 -0.060385 -0.285414
v -0.069341 0.060385 -0.069341
v -0.224247 -0.060385 -0.335611
v -0.054481 0.060385 -0.081537
v -0.154464 -0.060385 -0.372910
v -0.037527 0.060385 -0.090599
v -0.078745 -0.060385 -0.395880
v -0.019131 0.060385 -0.096179
v 0.078745 0.060385 -0.395879
v 0.000000 0.060385 -0.403635
v 0.154464 0.060385 -0.372910
v 0.224248 0.060385 -0.335610
v 0.285413 0.060385 -0.285413
v 0.335610 0.060385 -0.224248
v 0.372910 0.060385 -0.154464
v 0.395879 0.060385 -0.078745
v 0.403635 0.060385 -0.000000
v 0.395879 0.060385 0.078745
v 0.372910 0.060385 0.154464
v 0.335610 0.060385 0.224248
v 0.285413 0.060385 0.285413
v 0.224248 0.060385 0.335610
v 0.154464 0.060385 0.372910
v 0.078745 0.060385 0.395879
v -0.000000 0.060385 0.403635
v -0.078745 0.060385 0.395879
v -0.154465 0.060385 0.372910
v -0.224248 0.060385 0.335610
v -0.285413 0.060385 0.285413
v -0.335611 0.060385 0.224247
v -0.372910 0.060385 0.154464
v -0.395879 0.060385 0.078745
v -0.403635 0.060385 -0.000000
v -0.395879 0.060385 -0.078746
v -0.372910 0.060385 -0.154465
v -0.335610 0.060385 -0.224248
v -0.285413 0.060385 -0.285414
v -0.224247 0.060385 -0.335611
v -0.154464 0.060385 -0.372910
v -0.078745 0.060385 -0.395880
v 0.019131 1.021422 -0.096179
v -0.000000 1.021422 -0.098063
v 0.037527 1.021422 -0.090599
v 0.054481 1.021422 -0.081537
v 0.069341 1.021422 -0.069341
v 0.081537 1.021422 -0.054481
v 0.090599 1.021422 -0.037527
v 0.096179 1.021422 -0.019131
v 0.098063 1.021422 0.000000
v 0.096179 1.021422 0.019131
v 0.090599 1.021422 0.037527
v 0.081537 1.021422 0.054481
v 0.069341 1.021422 0.069341
v 0.054481 1.021422 0.081537
v 0.037527 1.021422 0.090599
v 0.019131 1.021422 0.096179
v -0.000000 1.021422 0.098063
v -0.019131 1.021422 0.096179
v -0.037527 1.021422 0.090599
v -0.054481 1.021422 0.081537
v -0.069341 1.021422 0.069341
v -0.081537 1.021422 0.054481
v -0.090599 1.021422 0.037527
v -0.096179 1.021422 0.019131
v -0.098063 1.021422 -0.000000
v -0.096179 1.021422 -0.019131
v -0.090599 1.021422 -0.037527
v -0.081537 1.021422 -0.054481
v -0.069341 1.021422 -0.069341
v -0.054481 1.021422 -0.081537
v -0.037527 1.021422 -0.090599
v -0.019131 1.021422 -0.096179
v 0.008522 1.394288 -0.042845
v 0.019131 1.178371 -0.096179
v -0.000000 1.178371 -0.098063
v -0.000000 1.394288 -0.043684
v 0.016717 1.394288 -0.040359
v 0.037527 1.178371 -0.090599
v 0.024270 1.394288 -0.036322
v 0.054481 1.178371 -0.081537
v 0.030889 1.394288 -0.030889
v 0.069341 1.178371 -0.069341
v 0.036322 1.394288 -0.024270
v 0.081537 1.178371 -0.054481
v 0.040359 1.394288 -0.016717
v 0.090599 1.178371 -0.037527
v 0.042845 1.394288 -0.008522
v 0.096179 1.178371 -0.019131
v 0.043684 1.394288 0.000000
v 0.098063 1.178371 0.000000
v 0.042845 1.394288 0.008522
v 0.096179 1.178371 0.019131
v 0.040359 1.394288 0.016717
v 0.090599 1.178371 0.037527
v 0.036322 1.394288 0.024270
v 0.081537 1.178371 0.054481
v 0.030889 1.394288 0.030889
v 0.069341 1.178371 0.069341
v 0.024270 1.394288 0.036322
v 0.054481 1.178371 0.081537
v 0.016717 1.394288 0.040359
v 0.037527 1.178371 0.090599
v 0.008522 1.394288 0.042845
v 0.019131 1.178371 0.096179
v 0.000000 1.394288 0.043684
v 0.000000 1.178371 0.098063
v -0.008522 1.394288 0.042845
v -0.019131 1.178371 0.096179
v -0.016717 1.394288 0.040359
v -0.037527 1.178371 0.090599
v -0.024270 1.394288 0.036322
v -0.054481 1.178371 0.081537
v -0.030889 1.394288 0.030889
v -0.069341 1.178371 0.069341
v -0.036322 1.394288 0.024270
v -0.081537 1.178371 0.054481
v -0.040359 1.394288 0.016717
v -0.090599 1.178371 0.037527
v -0.042845 1.394288 0.008522
v -0.096179 1.178371 0.019131
v -0.043684 1.394288 -0.000000
v -0.098063 1.178371 -0.000000
v -0.042845 1.394288 -0.008522
v -0.096179 1.178371 -0.019131
v -0.040359 1.394288 -0.016717
v -0.090599 1.178371 -0.037527
v -0.036322 1.394288 -0.024270
v -0.081536 1.178371 -0.054481
v -0.030889 1.394288 -0.030889
v -0.069341 1.178371 -0.069341
v -0.024270 1.394288 -0.036322
v -0.054481 1.178371 -0.081537
v -0.016717 1.394288 -0.040359
v -0.037527 1.178371 -0.090599
v -0.008522 1.394288 -0.042845
v -0.019131 1.178371 -0.096179
vt 1.000000 0.500000
vt 1.000000 1.000000
vt 0.968750 1.000000
vt 0.968750 0.500000
vt 0.937500 1.000000
vt 0.937500 0.500000
vt 0.906250 1.000000
vt 0.906250 0.500000
vt 0.875000 1.000000
vt 0.875000 0.500000
vt 0.843750 1.000000
vt 0.843750 0.500000
vt 0.812500 1.000000
vt 0.812500 0.500000
vt 0.781250 1.000000
vt 0.781250 0.500000
vt 0.750000 1.000000
vt 0.750000 0.500000
vt 0.718750 1.000000
vt 0.718750 0.500000
vt 0.687500 1.000000
vt 0.687500 0.500000
vt 0.656250 1.000000
vt 0.656250 0.500000
vt 0.625000 1.000000
vt 0.625000 0.500000
vt 0.593750 1.000000
vt 0.593750 0.500000
vt 0.562500 1.000000
vt 0.562500 0.500000
vt 0.531250 1.000000
vt 0.531250 0.500000
vt 0.500000 1.000000
vt 0.500000 0.500000
vt 0.468750 1.000000
vt 0.468750 0.500000
vt 0.437500 1.000000
vt 0.437500 0.500000
vt 0.406250 1.000000
vt 0.406250 0.500000
vt 0.375000 1.000000
vt 0.375000 0.500000
vt 0.343750 1.000000
vt 0.343750 0.500000
vt 0.312500 1.000000
vt 0.312500 0.500000
vt 0.281250 1.000000
vt 0.281250 0.500000
vt 0.250000 1.000000
vt 0.250000 0.500000
vt 0.218750 1.000000
vt 0.218750 0.500000
vt 0.187500 1.000000
vt 0.187500 0.500000
vt 0.156250 1.000000
vt 0.156250 0.500000
vt 0.125000 1.000000
vt 0.125000 0.500000
vt 0.093750 1.000000
vt 0.093750 0.500000
vt 0.062500 1.000000
vt 0.062500 0.500000
vt 0.192812 0.261375
vt 0.191692 0.250000
vt 0.191692 0.250000
vt 0.192812 0.261375
vt 0.031250 1.000000
vt 0.031250 0.500000
vt 0.000000 1.000000
vt 0.000000 0.500000
vt 0.750000 0.490000
vt 0.796822 0.485388
vt 0.841844 0.471731
vt 0.883337 0.449553
vt 0.919706 0.419706
vt 0.949553 0.383337
vt 0.971731 0.341844
vt 0.985388 0.296822
vt 0.990000 0.250000
vt 0.985388 0.203178
vt 0.971731 0.158156
vt 0.949553 0.116663
vt 0.919706 0.080294
vt 0.883337 0.050447
vt 0.841844 0.028269
vt 0.796822 0.014612
vt 0.750000 0.010000
vt 0.703178 0.014612
vt 0.658156 0.028269
vt 0.616663 0.050447
vt 0.580294 0.080294
vt 0.550447 0.116663
vt 0.528269 0.158156
vt 0.514611 0.203179
vt 0.510000 0.250000
vt 0.514612 0.296822
vt 0.528269 0.341844
vt 0.550447 0.383337
vt 0.580295 0.419706
vt 0.616663 0.449553
vt 0.658156 0.471731
vt 0.703179 0.485389
vt 0.250000 0.308308
vt 0.261375 0.307188
vt 0.296822 0.485388
vt 0.250000 0.490000
vt 0.272314 0.303870
vt 0.341844 0.471731
vt 0.282394 0.298481
vt 0.383337 0.449553
vt 0.291230 0.291230
vt 0.419706 0.419706
vt 0.298481 0.282394
vt 0.449553 0.383337
vt 0.303870 0.272314
vt 0.471731 0.341844
vt 0.307188 0.261375
vt 0.485388 0.296822
vt 0.308308 0.250000
vt 0.490000 0.250000
vt 0.307188 0.238625
vt 0.485388 0.203178
vt 0.303870 0.227687
vt 0.471731 0.158156
vt 0.298481 0.217606
vt 0.449553 0.116663
vt 0.291230 0.208770
vt 0.419706 0.080294
vt 0.282394 0.201519
vt 0.383337 0.050447
vt 0.272313 0.196130
vt 0.341844 0.028269
vt 0.261375 0.192812
vt 0.296822 0.014612
vt 0.250000 0.191692
vt 0.250000 0.010000
vt 0.238625 0.192812
vt 0.203178 0.014612
vt 0.227686 0.196130
vt 0.158156 0.028269
vt 0.217606 0.201519
vt 0.116663 0.050447
vt 0.208770 0.208770
vt 0.080294 0.080294
vt 0.201519 0.217606
vt 0.050447 0.116663
vt 0.196130 0.227687
vt 0.028269 0.158156
vt 0.192812 0.238625
vt 0.014611 0.203179
vt 0.010000 0.250000
vt 0.014612 0.296822
vt 0.196130 0.272314
vt 0.028269 0.341844
vt 0.201519 0.282394
vt 0.050447 0.383337
vt 0.208770 0.291230
vt 0.080295 0.419706
vt 0.217606 0.298481
vt 0.116663 0.449553
vt 0.227687 0.303870
vt 0.158156 0.471731
vt 0.238625 0.307188
vt 0.203179 0.485389
vt 0.250000 0.308308
vt 0.238625 0.307188
vt 0.238625 0.307188
vt 0.250000 0.308308
vt 0.298481 0.217606
vt 0.291230 0.208770
vt 0.196130 0.272314
vt 0.282394 0.201519
vt 0.201519 0.282394
vt 0.272313 0.196130
vt 0.261375 0.307188
vt 0.208770 0.291230
vt 0.261375 0.192812
vt 0.272314 0.303870
vt 0.217606 0.298481
vt 0.250000 0.191692
vt 0.282394 0.298481
vt 0.227687 0.303870
vt 0.238625 0.192812
vt 0.291230 0.291230
vt 0.227686 0.196130
vt 0.298481 0.282394
vt 0.217606 0.201519
vt 0.303870 0.272314
vt 0.208770 0.208770
vt 0.307188 0.261375
vt 0.201519 0.217606
vt 0.308308 0.250000
vt 0.196130 0.227687
vt 0.307188 0.238625
vt 0.192812 0.238625
vt 0.303870 0.227687
vt 0.261375 0.307188
vt 0.272314 0.303870
vt 0.208770 0.291230
vt 0.217606 0.298481
vt 0.261375 0.192812
vt 0.250000 0.191692
vt 0.227687 0.303870
vt 0.238625 0.192812
vt 0.282394 0.298481
vt 0.291230 0.291230
vt 0.227686 0.196130
vt 0.298481 0.282394
vt 0.217606 0.201519
vt 0.303870 0.272314
vt 0.208770 0.208770
vt 0.307188 0.261375
vt 0.201519 0.217606
vt 0.308308 0.250000
vt 0.196130 0.227687
vt 0.307188 0.238625
vt 0.192812 0.238625
vt 0.303870 0.227687
vt 0.191692 0.250000
vt 0.298481 0.217606
vt 0.192812 0.261375
vt 0.291230 0.208770
vt 0.196130 0.272314
vt 0.282394 0.201519
vt 0.201519 0.282394
vt 0.272313 0.196130
vt 0.250000 0.275974
vt 0.255067 0.275475
vt 0.259940 0.273997
vt 0.264431 0.271597
vt 0.268367 0.268367
vt 0.271597 0.264431
vt 0.273997 0.259940
vt 0.275475 0.255067
vt 0.275974 0.250000
vt 0.275475 0.244933
vt 0.273997 0.240060
vt 0.271597 0.235569
vt 0.268367 0.231633
vt 0.264431 0.228403
vt 0.259940 0.226003
vt 0.255067 0.224525
vt 0.250000 0.224026
vt 0.244933 0.224525
vt 0.240060 0.226003
vt 0.235569 0.228403
vt 0.231633 0.231633
vt 0.228403 0.235569
vt 0.226003 0.240060
vt 0.224525 0.244933
vt 0.224026 0.250000
vt 0.224525 0.255067
vt 0.226003 0.259940
vt 0.228403 0.264431
vt 0.231633 0.268367
vt 0.235569 0.271597
vt 0.240060 0.273997
vt 0.244933 0.275475
vn 0.0980 0.0000 -0.9952
vn 0.2903 0.0000 -0.9569
vn 0.4714 0.0000 -0.8819
vn 0.6344 0.0000 -0.7730
vn 0.7730 0.0000 -0.6344
vn 0.8819 0.0000 -0.4714
vn 0.9569 0.0000 -0.2903
vn 0.9952 0.0000 -0.0980
vn 0.9952 0.0000 0.0980
vn 0.9569 0.0000 0.2903
vn 0.8819 0.0000 0.4714
vn 0.7730 0.0000 0.6344
vn 0.6344 0.0000 0.7730
vn 0.4714 0.0000 0.8819
vn 0.2903 0.0000 0.9569
vn 0.0980 0.0000 0.9952
vn -0.0980 0.0000 0.9952
vn -0.2903 0.0000 0.9569
vn -0.4714 0.0000 0.8819
vn -0.6344 0.0000 0.7730
vn -0.7730 0.0000 0.6344
vn -0.8819 0.0000 0.4714
vn -0.9569 0.0000 0.2903
vn -0.9952 0.0000 0.0980
vn -0.9952 0.0000 -0.0980
vn -0.9569 0.0000 -0.2903
vn -0.8819 0.0000 -0.4714
vn -0.7730 0.0000 -0.6344
vn -0.6344 0.0000 -0.7730
vn -0.4714 0.0000 -0.8819
vn -0.2903 0.0000 -0.9569
vn -0.0980 0.0000 -0.9952
vn 0.0000 -1.0000 0.0000
vn 0.0000 1.0000 0.0000
vn 0.0951 0.2431 -0.9653
vn 0.2816 0.2431 -0.9282
vn 0.4573 0.2431 -0.8555
vn 0.6154 0.2431 -0.7498
vn 0.7498 0.2431 -0.6154
vn 0.8555 0.2431 -0.4573
vn 0.9282 0.2431 -0.2816
vn 0.9653 0.2431 -0.0951
vn 0.9653 0.2431 0.0951
vn 0.9282 0.2431 0.2816
vn 0.8555 0.2431 0.4573
vn 0.7498 0.2431 0.6154
vn 0.6154 0.2431 0.7498
vn 0.4573 0.2431 0.8555
vn 0.2816 0.2431 0.9282
vn 0.0951 0.2431 0.9653
vn -0.0951 0.2431 0.9653
vn -0.2816 0.2431 0.9282
vn -0.4573 0.2431 0.8555
vn -0.6154 0.2431 0.7498
vn -0.7498 0.2431 0.6154
vn -0.8555 0.2431 0.4572
vn -0.9282 0.2431 0.2816
vn -0.9653 0.2431 0.0951
vn -0.9653 0.2431 -0.0951
vn -0.9282 0.2431 -0.2816
vn -0.8555 0.2431 -0.4573
vn -0.7498 0.2431 -0.6154
vn -0.6154 0.2431 -0.7498
vn -0.4572 0.2431 -0.8555
vn -0.2816 0.2431 -0.9282
vn -0.0951 0.2431 -0.9653
usemtl None
s off
f 1/1/1 66/2/1 65/3/1 3/4/1
f 3/4/2 65/3/2 67/5/2 5/6/2
f 5/6/3 67/5/3 68/7/3 7/8/3
f 7/8/4 68/7/4 69/9/4 9/10/4
f 9/10/5 69/9/5 70/11/5 11/12/5
f 11/12/6 70/11/6 71/13/6 13/14/6
f 13/14/7 71/13/7 72/15/7 15/16/7
f 15/16/8 72/15/8 73/17/8 17/18/8
f 17/18/9 73/17/9 74/19/9 19/20/9
f 19/20/10 74/19/10 75/21/10 21/22/10
f 21/22/11 75/21/11 76/23/11 23/24/11
f 23/24/12 76/23/12 77/25/12 25/26/12
f 25/26/13 77/25/13 78/27/13 27/28/13
f 27/28/14 78/27/14 79/29/14 29/30/14
f 29/30/15 79/29/15 80/31/15 31/32/15
f 31/32/16 80/31/16 81/33/16 33/34/16
f 33/34/17 81/33/17 82/35/17 35/36/17
f 35/36/18 82/35/18 83/37/18 37/38/18
f 37/38/19 83/37/19 84/39/19 39/40/19
f 39/40/20 84/39/20 85/41/20 41/42/20
f 41/42/21 85/41/21 86/43/21 43/44/21
f 43/44/22 86/43/22 87/45/22 45/46/22
f 45/46/23 87/45/23 88/47/23 47/48/23
f 47/48/24 88/47/24 89/49/24 49/50/24
f 49/50/25 89/49/25 90/51/25 51/52/25
f 51/52/26 90/51/26 91/53/26 53/54/26
f 53/54/27 91/53/27 92/55/27 55/56/27
f 55/56/28 92/55/28 93/57/28 57/58/28
f 57/58/29 93/57/29 94/59/29 59/60/29
f 59/60/30 94/59/30 95/61/30 61/62/30
f 52/63/25 50/64/25 121/65/25 122/66/25
f 61/62/31 95/61/31 96/67/31 63/68/31
f 63/68/32 96/67/32 66/69/32 1/70/32
f 1/71/33 3/72/33 5/73/33 7/74/33 9/75/33 11/76/33 13/77/33 15/78/33 17/79/33 19/80/33 21/81/33 23/82/33 25/83/33 27/84/33 29/85/33 31/86/33 33/87/33 35/88/33 37/89/33 39/90/33 41/91/33 43/92/33 45/93/33 47/94/33 49/95/33 51/96/33 53/97/33 55/98/33 57/99/33 59/100/33 61/101/33 63/102/33
f 2/103/34 4/104/34 65/105/34 66/106/34
f 4/104/34 6/107/34 67/108/34 65/105/34
f 6/107/34 8/109/34 68/110/34 67/108/34
f 8/109/34 10/111/34 69/112/34 68/110/34
f 10/111/34 12/113/34 70/114/34 69/112/34
f 12/113/34 14/115/34 71/116/34 70/114/34
f 14/115/34 16/117/34 72/118/34 71/116/34
f 16/117/34 18/119/34 73/120/34 72/118/34
f 18/119/34 20/121/34 74/122/34 73/120/34
f 20/121/34 22/123/34 75/124/34 74/122/34
f 22/123/34 24/125/34 76/126/34 75/124/34
f 24/125/34 26/127/34 77/128/34 76/126/34
f 26/127/34 28/129/34 78/130/34 77/128/34
f 28/129/34 30/131/34 79/132/34 78/130/34
f 30/131/34 32/133/34 80/134/34 79/132/34
f 32/133/34 34/135/34 81/136/34 80/134/34
f 34/135/34 36/137/34 82/138/34 81/136/34
f 36/137/34 38/139/34 83/140/34 82/138/34
f 38/139/34 40/141/34 84/142/34 83/140/34
f 40/141/34 42/143/34 85/144/34 84/142/34
f 42/143/34 44/145/34 86/146/34 85/144/34
f 44/145/34 46/147/34 87/148/34 86/146/34
f 46/147/34 48/149/34 88/150/34 87/148/34
f 48/149/34 50/64/34 89/151/34 88/150/34
f 50/64/34 52/63/34 90/152/34 89/151/34
f 52/63/34 54/153/34 91/154/34 90/152/34
f 54/153/34 56/155/34 92/156/34 91/154/34
f 56/155/34 58/157/34 93/158/34 92/156/34
f 58/157/34 60/159/34 94/160/34 93/158/34
f 60/159/34 62/161/34 95/162/34 94/160/34
f 62/161/34 64/163/34 96/164/34 95/162/34
f 64/163/34 2/103/34 66/106/34 96/164/34
f 98/165/32 128/166/32 192/167/32 131/168/32
f 26/127/12 24/125/12 108/169/12 109/170/12
f 54/153/26 52/63/26 122/66/26 123/171/26
f 28/129/13 26/127/13 109/170/13 110/172/13
f 56/155/27 54/153/27 123/171/27 124/173/27
f 30/131/14 28/129/14 110/172/14 111/174/14
f 4/104/1 2/103/1 98/165/1 97/175/1
f 58/157/28 56/155/28 124/173/28 125/176/28
f 32/133/15 30/131/15 111/174/15 112/177/15
f 6/107/2 4/104/2 97/175/2 99/178/2
f 60/159/29 58/157/29 125/176/29 126/179/29
f 34/135/16 32/133/16 112/177/16 113/180/16
f 8/109/3 6/107/3 99/178/3 100/181/3
f 62/161/30 60/159/30 126/179/30 127/182/30
f 36/137/17 34/135/17 113/180/17 114/183/17
f 10/111/4 8/109/4 100/181/4 101/184/4
f 64/163/31 62/161/31 127/182/31 128/166/31
f 38/139/18 36/137/18 114/183/18 115/185/18
f 12/113/5 10/111/5 101/184/5 102/186/5
f 2/103/32 64/163/32 128/166/32 98/165/32
f 40/141/19 38/139/19 115/185/19 116/187/19
f 14/115/6 12/113/6 102/186/6 103/188/6
f 42/143/20 40/141/20 116/187/20 117/189/20
f 16/117/7 14/115/7 103/188/7 104/190/7
f 44/145/21 42/143/21 117/189/21 118/191/21
f 18/119/8 16/117/8 104/190/8 105/192/8
f 46/147/22 44/145/22 118/191/22 119/193/22
f 20/121/9 18/119/9 105/192/9 106/194/9
f 48/149/23 46/147/23 119/193/23 120/195/23
f 22/123/10 20/121/10 106/194/10 107/196/10
f 50/64/24 48/149/24 120/195/24 121/65/24
f 24/125/11 22/123/11 107/196/11 108/169/11
f 99/178/2 97/175/2 130/197/2 134/198/2
f 126/179/29 125/176/29 186/199/29 188/200/29
f 113/180/16 112/177/16 160/201/16 162/202/16
f 97/175/1 98/165/1 131/168/1 130/197/1
f 127/182/30 126/179/30 188/200/30 190/203/30
f 114/183/17 113/180/17 162/202/17 164/204/17
f 101/184/4 100/181/4 136/205/4 138/206/4
f 128/166/31 127/182/31 190/203/31 192/167/31
f 115/185/18 114/183/18 164/204/18 166/207/18
f 102/186/5 101/184/5 138/206/5 140/208/5
f 116/187/19 115/185/19 166/207/19 168/209/19
f 103/188/6 102/186/6 140/208/6 142/210/6
f 100/181/3 99/178/3 134/198/3 136/205/3
f 117/189/20 116/187/20 168/209/20 170/211/20
f 104/190/7 103/188/7 142/210/7 144/212/7
f 118/191/21 117/189/21 170/211/21 172/213/21
f 105/192/8 104/190/8 144/212/8 146/214/8
f 119/193/22 118/191/22 172/213/22 174/215/22
f 106/194/9 105/192/9 146/214/9 148/216/9
f 120/195/23 119/193/23 174/215/23 176/217/23
f 107/196/10 106/194/10 148/216/10 150/218/10
f 121/65/24 120/195/24 176/217/24 178/219/24
f 108/169/11 107/196/11 150/218/11 152/220/11
f 122/66/25 121/65/25 178/219/25 180/221/25
f 109/170/12 108/169/12 152/220/12 154/222/12
f 123/171/26 122/66/26 180/221/26 182/223/26
f 110/172/13 109/170/13 154/222/13 156/224/13
f 124/173/27 123/171/27 182/223/27 184/225/27
f 111/174/14 110/172/14 156/224/14 158/226/14
f 125/176/28 124/173/28 184/225/28 186/199/28
f 112/177/15 111/174/15 158/226/15 160/201/15
f 130/197/35 131/168/35 132/227/35 129/228/35
f 134/198/36 130/197/36 129/228/36 133/229/36
f 136/205/37 134/198/37 133/229/37 135/230/37
f 138/206/38 136/205/38 135/230/38 137/231/38
f 140/208/39 138/206/39 137/231/39 139/232/39
f 142/210/40 140/208/40 139/232/40 141/233/40
f 144/212/41 142/210/41 141/233/41 143/234/41
f 146/214/42 144/212/42 143/234/42 145/235/42
f 148/216/43 146/214/43 145/235/43 147/236/43
f 150/218/44 148/216/44 147/236/44 149/237/44
f 152/220/45 150/218/45 149/237/45 151/238/45
f 154/222/46 152/220/46 151/238/46 153/239/46
f 156/224/47 154/222/47 153/239/47 155/240/47
f 158/226/48 156/224/48 155/240/48 157/241/48
f 160/201/49 158/226/49 157/241/49 159/242/49
f 162/202/50 160/201/50 159/242/50 161/243/50
f 164/204/51 162/202/51 161/243/51 163/244/51
f 166/207/52 164/204/52 163/244/52 165/245/52
f 168/209/53 166/207/53 165/245/53 167/246/53
f 170/211/54 168/209/54 167/246/54 169/247/54
f 172/213/55 170/211/55 169/247/55 171/248/55
f 174/215/56 172/213/56 171/248/56 173/249/56
f 176/217/57 174/215/57 173/249/57 175/250/57
f 178/219/58 176/217/58 175/250/58 177/251/58
f 180/221/59 178/219/59 177/251/59 179/252/59
f 182/223/60 180/221/60 179/252/60 181/253/60
f 184/225/61 182/223/61 181/253/61 183/254/61
f 186/199/62 184/225/62 183/254/62 185/255/62
f 188/200/63 186/199/63 185/255/63 187/256/63
f 190/203/64 188/200/64 187/256/64 189/257/64
f 192/167/65 190/203/65 189/257/65 191/258/65
f 131/168/66 192/167/66 191/258/66 132/227/66
f 129/228/34 132/227/34 191/258/34 189/257/34 187/256/34 185/255/34 183/254/34 181/253/34 179/252/34 177/251/34 175/250/34 173/249/34 171/248/34 169/247/34 167/246/34 165/245/34 163/244/34 161/243/34 159/242/34 157/241/34 155/240/34 153/239/34 151/238/34 149/237/34 147/236/34 145/235/34 143/234/34 141/233/34 139/232/34 137/231/34 135/230/34 133/229/34
