# Blender v2.90.1 OBJ File: ''
# www.blender.org
mtllib BasicBed.mtl
o Cube_Cube.003
v -3.000000 -0.500000 2.000000
v -3.000000 -0.266642 2.000000
v -3.000000 -0.500000 -2.000000
v -3.000000 -0.266642 -2.000000
v 3.000000 -0.500000 2.000000
v 3.000000 -0.266642 2.000000
v 3.000000 -0.500000 -2.000000
v 3.000000 -0.266642 -2.000000
v -3.000000 -0.500000 0.000000
v 0.000000 -0.500000 -2.000000
v 3.000000 -0.500000 0.000000
v 0.000000 -0.500000 2.000000
v 0.000000 -0.500000 0.000000
v -3.000000 -0.500000 1.000000
v -1.500000 -0.500000 -2.000000
v 3.000000 -0.500000 -1.000000
v 1.500000 -0.500000 2.000000
v -3.000000 -0.500000 -1.000000
v 1.500000 -0.500000 -2.000000
v 3.000000 -0.500000 1.000000
v -1.500000 -0.500000 2.000000
v 0.000000 -0.500000 1.000000
v 0.000000 -0.500000 -1.000000
v -1.500000 -0.500000 0.000000
v 1.500000 -0.500000 0.000000
v 1.500000 -0.500000 -1.000000
v -1.500000 -0.500000 -1.000000
v -1.500000 -0.500000 1.000000
v 1.500000 -0.500000 1.000000
v -3.000000 -0.500000 1.500000
v -2.250000 -0.500000 -2.000000
v 3.000000 -0.500000 -1.500000
v 2.250000 -0.500000 2.000000
v -3.000000 -0.500000 -1.500000
v 2.250000 -0.500000 -2.000000
v 3.000000 -0.500000 1.500000
v -2.250000 -0.500000 2.000000
v 1.500000 -0.500000 -1.500000
v 2.250000 -0.500000 -1.000000
v -1.500000 -0.500000 -1.500000
v -2.250000 -0.500000 -1.000000
v -1.500000 -0.500000 1.500000
v -2.250000 -0.500000 1.000000
v 1.500000 -0.500000 1.500000
v 2.250000 -0.500000 1.000000
v -2.250000 -0.500000 1.500000
v -2.250000 -0.500000 -1.500000
v 2.250000 -0.500000 -1.500000
v 2.250000 -0.500000 1.500000
v -3.000000 -0.781279 1.500000
v -3.000000 -0.781279 2.000000
v -2.250000 -0.781279 -2.000000
v -3.000000 -0.781279 -2.000000
v 3.000000 -0.781279 -1.500000
v 3.000000 -0.781279 -2.000000
v 2.250000 -0.781279 2.000000
v 3.000000 -0.781279 2.000000
v -3.000000 -0.781279 -1.500000
v 2.250000 -0.781279 -2.000000
v 3.000000 -0.781279 1.500000
v -2.250000 -0.781279 2.000000
v -2.250000 -0.781279 1.500000
v -2.250000 -0.781279 -1.500000
v 2.250000 -0.781279 -1.500000
v 2.250000 -0.781279 1.500000
v -3.000000 -0.266642 0.000000
v -2.655885 -0.266642 -2.000000
v 3.000000 -0.266642 0.000000
v -2.655885 -0.266642 2.000000
v -2.655885 -0.266642 0.000000
v -3.000000 1.332281 0.000000
v -3.000000 1.332281 -2.000000
v -2.655885 1.332281 2.000000
v -3.000000 1.332281 2.000000
v -2.655885 1.332281 -2.000000
v -2.655885 1.332281 0.000000
vt 0.375000 0.031250
vt 0.375000 0.218750
vt 0.375000 0.187500
vt 0.375000 0.125000
vt 0.375000 0.062500
vt 0.375000 0.281250
vt 0.375000 0.468750
vt 0.375000 0.437500
vt 0.375000 0.375000
vt 0.375000 0.312500
vt 0.375000 0.531250
vt 0.375000 0.718750
vt 0.375000 0.687500
vt 0.375000 0.625000
vt 0.375000 0.562500
vt 0.375000 0.781250
vt 0.375000 0.968750
vt 0.375000 0.937500
vt 0.375000 0.875000
vt 0.375000 0.812500
vt 0.375000 0.750000
vt 0.375000 0.781250
vt 0.375000 0.750000
vt 0.750000 0.750000
vt 0.750000 0.625000
vt 0.750000 0.625000
vt 0.750000 0.750000
vt 0.187500 0.687500
vt 0.250000 0.687500
vt 0.250000 0.750000
vt 0.187500 0.750000
vt 0.187500 0.718750
vt 0.187500 0.562500
vt 0.250000 0.562500
vt 0.250000 0.625000
vt 0.187500 0.625000
vt 0.312500 0.562500
vt 0.343750 0.562500
vt 0.312500 0.625000
vt 0.250000 0.500000
vt 0.312500 0.500000
vt 0.312500 0.531250
vt 0.343750 0.531250
vt 0.125000 0.562500
vt 0.156250 0.562500
vt 0.125000 0.625000
vt 0.156250 0.531250
vt 0.187500 0.531250
vt 0.187500 0.500000
vt 0.156250 0.718750
vt 0.156250 0.750000
vt 0.156250 0.687500
vt 0.125000 0.687500
vt 0.312500 0.687500
vt 0.312500 0.718750
vt 0.312500 0.750000
vt 0.343750 0.687500
vt 0.156250 0.500000
vt 0.156250 0.531250
vt 0.156250 0.500000
vt 0.125000 0.718750
vt 0.125000 0.531250
vt 0.375000 0.718750
vt 0.343750 0.500000
vt 0.343750 0.750000
vt 0.343750 0.718750
vt 0.343750 0.718750
vt 0.343750 0.750000
vt 0.625000 0.750000
vt 0.625000 0.875000
vt 0.625000 1.000000
vt 0.375000 1.000000
vt 0.375000 0.500000
vt 0.625000 0.500000
vt 0.625000 0.625000
vt 0.375000 0.250000
vt 0.625000 0.250000
vt 0.625000 0.375000
vt 0.375000 0.000000
vt 0.625000 0.000000
vt 0.625000 0.125000
vt 0.125000 0.718750
vt 0.156250 0.718750
vt 0.156250 0.750000
vt 0.125000 0.750000
vt 0.125000 0.500000
vt 0.125000 0.531250
vt 0.343750 0.500000
vt 0.375000 0.500000
vt 0.375000 0.531250
vt 0.343750 0.531250
vt 0.375000 1.000000
vt 0.375000 0.968750
vt 0.375000 0.281250
vt 0.375000 0.250000
vt 0.375000 0.031250
vt 0.375000 0.000000
vt 0.375000 0.218750
vt 0.375000 0.468750
vt 0.750000 0.500000
vt 0.625000 0.250000
vt 0.625000 0.375000
vt 0.875000 0.625000
vt 0.875000 0.750000
vt 0.750000 0.500000
vt 0.875000 0.500000
vt 0.625000 0.000000
vt 0.625000 0.125000
vt 0.625000 0.875000
vt 0.625000 1.000000
vn 0.0000 0.0000 1.0000
vn 1.0000 0.0000 0.0000
vn 0.0000 -1.0000 0.0000
vn -1.0000 0.0000 0.0000
vn 0.0000 0.0000 -1.0000
vn 0.0000 1.0000 0.0000
usemtl None
s off
f 30/1/1 34/2/1 18/3/1 9/4/1 14/5/1
f 31/6/1 35/7/1 19/8/1 10/9/1 15/10/1
f 32/11/1 36/12/1 20/13/1 11/14/1 16/15/1
f 33/16/1 37/17/1 21/18/1 12/19/1 17/20/1
f 5/21/1 33/16/1 56/22/1 57/23/1
f 69/24/2 70/25/2 76/26/2 73/27/2
f 28/28/3 22/29/3 12/30/3 21/31/3 42/32/3
f 27/33/3 23/34/3 13/35/3 24/36/3
f 26/37/3 39/38/3 16/15/3 11/14/3 25/39/3
f 23/34/3 26/37/3 25/39/3 13/35/3
f 10/40/3 19/41/3 38/42/3 26/37/3 23/34/3
f 48/43/3 32/11/3 16/15/3 39/38/3
f 18/44/3 41/45/3 27/33/3 24/36/3 9/46/3
f 47/47/3 40/48/3 27/33/3 41/45/3
f 15/49/3 10/40/3 23/34/3 27/33/3 40/48/3
f 46/50/3 42/32/3 21/31/3 37/51/3
f 9/46/3 24/36/3 28/28/3 43/52/3 14/53/3
f 24/36/3 13/35/3 22/29/3 28/28/3
f 22/29/3 29/54/3 44/55/3 17/56/3 12/30/3
f 13/35/3 25/39/3 29/54/3 22/29/3
f 25/39/3 11/14/3 20/13/3 45/57/3 29/54/3
f 31/58/2 47/47/2 63/59/2 52/60/2
f 14/53/3 43/52/3 46/50/3 30/61/3
f 43/52/3 28/28/3 42/32/3 46/50/3
f 34/62/3 47/47/3 41/45/3 18/44/3
f 36/12/2 5/21/2 57/23/2 60/63/2
f 31/58/3 15/49/3 40/48/3 47/47/3
f 38/42/3 48/43/3 39/38/3 26/37/3
f 19/41/3 35/64/3 48/43/3 38/42/3
f 33/65/4 49/66/4 65/67/4 56/68/4
f 44/55/3 49/66/3 33/65/3 17/56/3
f 29/54/3 45/57/3 49/66/3 44/55/3
f 45/57/3 20/13/3 36/12/3 49/66/3
f 5/21/1 6/69/1 69/70/1 2/71/1 1/72/1 37/17/1 33/16/1
f 7/73/2 8/74/2 68/75/2 6/69/2 5/21/2 36/12/2 32/11/2
f 3/76/5 4/77/5 67/78/5 8/74/5 7/73/5 35/7/5 31/6/5
f 1/79/4 2/80/4 66/81/4 4/77/4 3/76/4 34/2/4 30/1/4
f 65/67/3 60/63/3 57/23/3 56/68/3
f 50/82/3 62/83/3 61/84/3 51/85/3
f 53/86/3 52/60/3 63/59/3 58/87/3
f 59/88/3 55/89/3 54/90/3 64/91/3
f 37/17/1 1/72/1 51/92/1 61/93/1
f 47/47/1 34/62/1 58/87/1 63/59/1
f 3/76/5 31/6/5 52/94/5 53/95/5
f 46/50/2 37/51/2 61/84/2 62/83/2
f 49/66/5 36/12/5 60/63/5 65/67/5
f 48/43/4 35/64/4 59/88/4 64/91/4
f 30/61/5 46/50/5 62/83/5 50/82/5
f 7/73/2 32/11/2 54/90/2 55/89/2
f 1/79/4 30/1/4 50/96/4 51/97/4
f 34/2/4 3/76/4 53/95/4 58/98/4
f 32/11/1 48/43/1 64/91/1 54/90/1
f 35/7/5 7/73/5 55/89/5 59/99/5
f 68/75/6 70/25/6 69/24/6 6/69/6
f 8/74/6 67/100/6 70/25/6 68/75/6
f 67/78/5 4/77/5 72/101/5 75/102/5
f 76/26/6 71/103/6 74/104/6 73/27/6
f 75/105/6 72/106/6 71/103/6 76/26/6
f 66/81/4 2/80/4 74/107/4 71/108/4
f 4/77/4 66/81/4 71/108/4 72/101/4
f 70/25/2 67/100/2 75/105/2 76/26/2
f 2/71/1 69/70/1 73/109/1 74/110/1
